<mxfile host="app.diagrams.net" modified="2024-06-19T14:31:03.552Z" agent="Mozilla/5.0 (Windows NT 10.0; Win64; x64) AppleWebKit/537.36 (KHTML, like Gecko) Chrome/126.0.0.0 Safari/537.36" etag="FqSxSqJXIB0vsA0Hiy6j" version="24.5.5" type="github">
  <diagram id="C5RBs43oDa-KdzZeNtuy" name="Page-1">
    <mxGraphModel dx="2587" dy="868" grid="1" gridSize="10" guides="1" tooltips="1" connect="1" arrows="1" fold="1" page="1" pageScale="1" pageWidth="827" pageHeight="1169" math="0" shadow="0">
      <root>
        <mxCell id="WIyWlLk6GJQsqaUBKTNV-0" />
        <mxCell id="WIyWlLk6GJQsqaUBKTNV-1" parent="WIyWlLk6GJQsqaUBKTNV-0" />
        <mxCell id="9rCTW5py7BMMXRhduKw8-0" value="&lt;div&gt;&lt;i style=&quot;font-weight: normal;&quot;&gt;&amp;lt;&amp;lt;abstract&amp;gt;&amp;gt;&lt;/i&gt;&amp;nbsp;&lt;span style=&quot;background-color: initial;&quot;&gt;Measure&lt;/span&gt;&lt;/div&gt;" style="swimlane;fontStyle=1;align=center;verticalAlign=top;childLayout=stackLayout;horizontal=1;startSize=26;horizontalStack=0;resizeParent=1;resizeParentMax=0;resizeLast=0;collapsible=1;marginBottom=0;whiteSpace=wrap;html=1;" parent="WIyWlLk6GJQsqaUBKTNV-1" vertex="1">
          <mxGeometry x="-430" y="40" width="230" height="112" as="geometry" />
        </mxCell>
        <mxCell id="9rCTW5py7BMMXRhduKw8-1" value="-&lt;span style=&quot;background-color: initial;&quot;&gt;&amp;nbsp;name: String&lt;/span&gt;" style="text;strokeColor=none;fillColor=none;align=left;verticalAlign=top;spacingLeft=4;spacingRight=4;overflow=hidden;rotatable=0;points=[[0,0.5],[1,0.5]];portConstraint=eastwest;whiteSpace=wrap;html=1;" parent="9rCTW5py7BMMXRhduKw8-0" vertex="1">
          <mxGeometry y="26" width="230" height="26" as="geometry" />
        </mxCell>
        <mxCell id="9rCTW5py7BMMXRhduKw8-2" value="" style="line;strokeWidth=1;fillColor=none;align=left;verticalAlign=middle;spacingTop=-1;spacingLeft=3;spacingRight=3;rotatable=0;labelPosition=right;points=[];portConstraint=eastwest;strokeColor=inherit;" parent="9rCTW5py7BMMXRhduKw8-0" vertex="1">
          <mxGeometry y="52" width="230" height="8" as="geometry" />
        </mxCell>
        <mxCell id="9rCTW5py7BMMXRhduKw8-3" value="+ Measure(name:String)&lt;div&gt;&lt;br&gt;&lt;/div&gt;" style="text;strokeColor=none;fillColor=none;align=left;verticalAlign=top;spacingLeft=4;spacingRight=4;overflow=hidden;rotatable=0;points=[[0,0.5],[1,0.5]];portConstraint=eastwest;whiteSpace=wrap;html=1;" parent="9rCTW5py7BMMXRhduKw8-0" vertex="1">
          <mxGeometry y="60" width="230" height="26" as="geometry" />
        </mxCell>
        <mxCell id="9rCTW5py7BMMXRhduKw8-4" value="+ &lt;i&gt;calc&lt;/i&gt;(values:List&amp;lt;Double&amp;gt;): Double&lt;div&gt;&lt;br&gt;&lt;/div&gt;" style="text;strokeColor=none;fillColor=none;align=left;verticalAlign=top;spacingLeft=4;spacingRight=4;overflow=hidden;rotatable=0;points=[[0,0.5],[1,0.5]];portConstraint=eastwest;whiteSpace=wrap;html=1;" parent="9rCTW5py7BMMXRhduKw8-0" vertex="1">
          <mxGeometry y="86" width="230" height="26" as="geometry" />
        </mxCell>
        <mxCell id="9rCTW5py7BMMXRhduKw8-5" value="&lt;div&gt;&lt;span style=&quot;background-color: initial;&quot;&gt;Count&lt;/span&gt;&lt;/div&gt;" style="swimlane;fontStyle=1;align=center;verticalAlign=top;childLayout=stackLayout;horizontal=1;startSize=26;horizontalStack=0;resizeParent=1;resizeParentMax=0;resizeLast=0;collapsible=1;marginBottom=0;whiteSpace=wrap;html=1;" parent="WIyWlLk6GJQsqaUBKTNV-1" vertex="1">
          <mxGeometry x="-540" y="230" width="230" height="100" as="geometry" />
        </mxCell>
        <mxCell id="9rCTW5py7BMMXRhduKw8-6" value="&amp;nbsp;" style="text;strokeColor=none;fillColor=none;align=left;verticalAlign=top;spacingLeft=4;spacingRight=4;overflow=hidden;rotatable=0;points=[[0,0.5],[1,0.5]];portConstraint=eastwest;whiteSpace=wrap;html=1;" parent="9rCTW5py7BMMXRhduKw8-5" vertex="1">
          <mxGeometry y="26" width="230" height="14" as="geometry" />
        </mxCell>
        <mxCell id="9rCTW5py7BMMXRhduKw8-7" value="" style="line;strokeWidth=1;fillColor=none;align=left;verticalAlign=middle;spacingTop=-1;spacingLeft=3;spacingRight=3;rotatable=0;labelPosition=right;points=[];portConstraint=eastwest;strokeColor=inherit;" parent="9rCTW5py7BMMXRhduKw8-5" vertex="1">
          <mxGeometry y="40" width="230" height="8" as="geometry" />
        </mxCell>
        <mxCell id="9rCTW5py7BMMXRhduKw8-8" value="+ Count()&lt;div&gt;&lt;br&gt;&lt;/div&gt;" style="text;strokeColor=none;fillColor=none;align=left;verticalAlign=top;spacingLeft=4;spacingRight=4;overflow=hidden;rotatable=0;points=[[0,0.5],[1,0.5]];portConstraint=eastwest;whiteSpace=wrap;html=1;" parent="9rCTW5py7BMMXRhduKw8-5" vertex="1">
          <mxGeometry y="48" width="230" height="26" as="geometry" />
        </mxCell>
        <mxCell id="9rCTW5py7BMMXRhduKw8-9" value="+ calc(values:List&amp;lt;Double&amp;gt;): Double&lt;div&gt;&lt;br&gt;&lt;/div&gt;" style="text;strokeColor=none;fillColor=none;align=left;verticalAlign=top;spacingLeft=4;spacingRight=4;overflow=hidden;rotatable=0;points=[[0,0.5],[1,0.5]];portConstraint=eastwest;whiteSpace=wrap;html=1;" parent="9rCTW5py7BMMXRhduKw8-5" vertex="1">
          <mxGeometry y="74" width="230" height="26" as="geometry" />
        </mxCell>
        <mxCell id="9rCTW5py7BMMXRhduKw8-10" value="&lt;div&gt;&lt;span style=&quot;background-color: initial;&quot;&gt;Max&lt;/span&gt;&lt;/div&gt;" style="swimlane;fontStyle=1;align=center;verticalAlign=top;childLayout=stackLayout;horizontal=1;startSize=26;horizontalStack=0;resizeParent=1;resizeParentMax=0;resizeLast=0;collapsible=1;marginBottom=0;whiteSpace=wrap;html=1;" parent="WIyWlLk6GJQsqaUBKTNV-1" vertex="1">
          <mxGeometry x="-60" y="230" width="230" height="100" as="geometry" />
        </mxCell>
        <mxCell id="9rCTW5py7BMMXRhduKw8-11" value="&amp;nbsp;" style="text;strokeColor=none;fillColor=none;align=left;verticalAlign=top;spacingLeft=4;spacingRight=4;overflow=hidden;rotatable=0;points=[[0,0.5],[1,0.5]];portConstraint=eastwest;whiteSpace=wrap;html=1;" parent="9rCTW5py7BMMXRhduKw8-10" vertex="1">
          <mxGeometry y="26" width="230" height="14" as="geometry" />
        </mxCell>
        <mxCell id="9rCTW5py7BMMXRhduKw8-12" value="" style="line;strokeWidth=1;fillColor=none;align=left;verticalAlign=middle;spacingTop=-1;spacingLeft=3;spacingRight=3;rotatable=0;labelPosition=right;points=[];portConstraint=eastwest;strokeColor=inherit;" parent="9rCTW5py7BMMXRhduKw8-10" vertex="1">
          <mxGeometry y="40" width="230" height="8" as="geometry" />
        </mxCell>
        <mxCell id="9rCTW5py7BMMXRhduKw8-13" value="+ Max()&lt;div&gt;&lt;br&gt;&lt;/div&gt;" style="text;strokeColor=none;fillColor=none;align=left;verticalAlign=top;spacingLeft=4;spacingRight=4;overflow=hidden;rotatable=0;points=[[0,0.5],[1,0.5]];portConstraint=eastwest;whiteSpace=wrap;html=1;" parent="9rCTW5py7BMMXRhduKw8-10" vertex="1">
          <mxGeometry y="48" width="230" height="26" as="geometry" />
        </mxCell>
        <mxCell id="9rCTW5py7BMMXRhduKw8-14" value="+ calc(values:List&amp;lt;Double&amp;gt;): Double&lt;div&gt;&lt;br&gt;&lt;/div&gt;" style="text;strokeColor=none;fillColor=none;align=left;verticalAlign=top;spacingLeft=4;spacingRight=4;overflow=hidden;rotatable=0;points=[[0,0.5],[1,0.5]];portConstraint=eastwest;whiteSpace=wrap;html=1;" parent="9rCTW5py7BMMXRhduKw8-10" vertex="1">
          <mxGeometry y="74" width="230" height="26" as="geometry" />
        </mxCell>
        <mxCell id="9rCTW5py7BMMXRhduKw8-15" value="&lt;div&gt;&lt;span style=&quot;background-color: initial;&quot;&gt;Min&lt;/span&gt;&lt;/div&gt;" style="swimlane;fontStyle=1;align=center;verticalAlign=top;childLayout=stackLayout;horizontal=1;startSize=26;horizontalStack=0;resizeParent=1;resizeParentMax=0;resizeLast=0;collapsible=1;marginBottom=0;whiteSpace=wrap;html=1;" parent="WIyWlLk6GJQsqaUBKTNV-1" vertex="1">
          <mxGeometry x="-300" y="230" width="230" height="100" as="geometry" />
        </mxCell>
        <mxCell id="9rCTW5py7BMMXRhduKw8-16" value="&amp;nbsp;" style="text;strokeColor=none;fillColor=none;align=left;verticalAlign=top;spacingLeft=4;spacingRight=4;overflow=hidden;rotatable=0;points=[[0,0.5],[1,0.5]];portConstraint=eastwest;whiteSpace=wrap;html=1;" parent="9rCTW5py7BMMXRhduKw8-15" vertex="1">
          <mxGeometry y="26" width="230" height="14" as="geometry" />
        </mxCell>
        <mxCell id="9rCTW5py7BMMXRhduKw8-17" value="" style="line;strokeWidth=1;fillColor=none;align=left;verticalAlign=middle;spacingTop=-1;spacingLeft=3;spacingRight=3;rotatable=0;labelPosition=right;points=[];portConstraint=eastwest;strokeColor=inherit;" parent="9rCTW5py7BMMXRhduKw8-15" vertex="1">
          <mxGeometry y="40" width="230" height="8" as="geometry" />
        </mxCell>
        <mxCell id="9rCTW5py7BMMXRhduKw8-18" value="+ Min()&lt;div&gt;&lt;br&gt;&lt;/div&gt;" style="text;strokeColor=none;fillColor=none;align=left;verticalAlign=top;spacingLeft=4;spacingRight=4;overflow=hidden;rotatable=0;points=[[0,0.5],[1,0.5]];portConstraint=eastwest;whiteSpace=wrap;html=1;" parent="9rCTW5py7BMMXRhduKw8-15" vertex="1">
          <mxGeometry y="48" width="230" height="26" as="geometry" />
        </mxCell>
        <mxCell id="9rCTW5py7BMMXRhduKw8-19" value="+ calc(values:List&amp;lt;Double&amp;gt;): Double&lt;div&gt;&lt;br&gt;&lt;/div&gt;" style="text;strokeColor=none;fillColor=none;align=left;verticalAlign=top;spacingLeft=4;spacingRight=4;overflow=hidden;rotatable=0;points=[[0,0.5],[1,0.5]];portConstraint=eastwest;whiteSpace=wrap;html=1;" parent="9rCTW5py7BMMXRhduKw8-15" vertex="1">
          <mxGeometry y="74" width="230" height="26" as="geometry" />
        </mxCell>
        <mxCell id="9rCTW5py7BMMXRhduKw8-20" value="&lt;div&gt;&lt;span style=&quot;background-color: initial;&quot;&gt;Sum&lt;/span&gt;&lt;/div&gt;" style="swimlane;fontStyle=1;align=center;verticalAlign=top;childLayout=stackLayout;horizontal=1;startSize=26;horizontalStack=0;resizeParent=1;resizeParentMax=0;resizeLast=0;collapsible=1;marginBottom=0;whiteSpace=wrap;html=1;" parent="WIyWlLk6GJQsqaUBKTNV-1" vertex="1">
          <mxGeometry x="-780" y="230" width="230" height="100" as="geometry" />
        </mxCell>
        <mxCell id="9rCTW5py7BMMXRhduKw8-21" value="&amp;nbsp;" style="text;strokeColor=none;fillColor=none;align=left;verticalAlign=top;spacingLeft=4;spacingRight=4;overflow=hidden;rotatable=0;points=[[0,0.5],[1,0.5]];portConstraint=eastwest;whiteSpace=wrap;html=1;" parent="9rCTW5py7BMMXRhduKw8-20" vertex="1">
          <mxGeometry y="26" width="230" height="14" as="geometry" />
        </mxCell>
        <mxCell id="9rCTW5py7BMMXRhduKw8-22" value="" style="line;strokeWidth=1;fillColor=none;align=left;verticalAlign=middle;spacingTop=-1;spacingLeft=3;spacingRight=3;rotatable=0;labelPosition=right;points=[];portConstraint=eastwest;strokeColor=inherit;" parent="9rCTW5py7BMMXRhduKw8-20" vertex="1">
          <mxGeometry y="40" width="230" height="8" as="geometry" />
        </mxCell>
        <mxCell id="9rCTW5py7BMMXRhduKw8-23" value="+ Sum()&lt;div&gt;&lt;br&gt;&lt;/div&gt;" style="text;strokeColor=none;fillColor=none;align=left;verticalAlign=top;spacingLeft=4;spacingRight=4;overflow=hidden;rotatable=0;points=[[0,0.5],[1,0.5]];portConstraint=eastwest;whiteSpace=wrap;html=1;" parent="9rCTW5py7BMMXRhduKw8-20" vertex="1">
          <mxGeometry y="48" width="230" height="26" as="geometry" />
        </mxCell>
        <mxCell id="9rCTW5py7BMMXRhduKw8-24" value="+ calc(values:List&amp;lt;Double&amp;gt;): Double&lt;div&gt;&lt;br&gt;&lt;/div&gt;" style="text;strokeColor=none;fillColor=none;align=left;verticalAlign=top;spacingLeft=4;spacingRight=4;overflow=hidden;rotatable=0;points=[[0,0.5],[1,0.5]];portConstraint=eastwest;whiteSpace=wrap;html=1;" parent="9rCTW5py7BMMXRhduKw8-20" vertex="1">
          <mxGeometry y="74" width="230" height="26" as="geometry" />
        </mxCell>
        <mxCell id="9rCTW5py7BMMXRhduKw8-25" value="Metrics" style="shape=umlFrame;whiteSpace=wrap;html=1;pointerEvents=0;" parent="WIyWlLk6GJQsqaUBKTNV-1" vertex="1">
          <mxGeometry x="-800" y="10" width="990" height="350" as="geometry" />
        </mxCell>
        <mxCell id="9rCTW5py7BMMXRhduKw8-26" value="Extends" style="endArrow=block;endSize=16;endFill=0;html=1;rounded=0;entryX=0.313;entryY=1.132;entryDx=0;entryDy=0;entryPerimeter=0;exitX=0.788;exitY=-0.001;exitDx=0;exitDy=0;exitPerimeter=0;" parent="WIyWlLk6GJQsqaUBKTNV-1" source="9rCTW5py7BMMXRhduKw8-5" target="9rCTW5py7BMMXRhduKw8-4" edge="1">
          <mxGeometry width="160" relative="1" as="geometry">
            <mxPoint x="-410" y="220" as="sourcePoint" />
            <mxPoint x="-360" y="160" as="targetPoint" />
          </mxGeometry>
        </mxCell>
        <mxCell id="9rCTW5py7BMMXRhduKw8-27" value="Extends" style="endArrow=block;endSize=16;endFill=0;html=1;rounded=0;exitX=0.157;exitY=0.003;exitDx=0;exitDy=0;entryX=0.714;entryY=1.083;entryDx=0;entryDy=0;entryPerimeter=0;exitPerimeter=0;" parent="WIyWlLk6GJQsqaUBKTNV-1" source="9rCTW5py7BMMXRhduKw8-15" target="9rCTW5py7BMMXRhduKw8-4" edge="1">
          <mxGeometry width="160" relative="1" as="geometry">
            <mxPoint x="-415" y="240" as="sourcePoint" />
            <mxPoint x="-250" y="160" as="targetPoint" />
          </mxGeometry>
        </mxCell>
        <mxCell id="9rCTW5py7BMMXRhduKw8-31" value="Extends" style="endArrow=block;endSize=16;endFill=0;html=1;rounded=0;entryX=0.313;entryY=1.132;entryDx=0;entryDy=0;entryPerimeter=0;exitX=0.75;exitY=0;exitDx=0;exitDy=0;edgeStyle=orthogonalEdgeStyle;" parent="WIyWlLk6GJQsqaUBKTNV-1" source="9rCTW5py7BMMXRhduKw8-20" edge="1">
          <mxGeometry width="160" relative="1" as="geometry">
            <mxPoint x="-425.53" y="227" as="sourcePoint" />
            <mxPoint x="-424.53" y="152" as="targetPoint" />
          </mxGeometry>
        </mxCell>
        <mxCell id="9rCTW5py7BMMXRhduKw8-32" value="Extends" style="endArrow=block;endSize=16;endFill=0;html=1;rounded=0;exitX=0.25;exitY=0;exitDx=0;exitDy=0;entryX=0.975;entryY=1.034;entryDx=0;entryDy=0;entryPerimeter=0;edgeStyle=orthogonalEdgeStyle;" parent="WIyWlLk6GJQsqaUBKTNV-1" source="9rCTW5py7BMMXRhduKw8-10" target="9rCTW5py7BMMXRhduKw8-4" edge="1">
          <mxGeometry width="160" relative="1" as="geometry">
            <mxPoint x="-148" y="240" as="sourcePoint" />
            <mxPoint x="-150" y="164" as="targetPoint" />
            <Array as="points">
              <mxPoint x="-2" y="190" />
              <mxPoint x="-206" y="190" />
            </Array>
          </mxGeometry>
        </mxCell>
        <mxCell id="9rCTW5py7BMMXRhduKw8-34" value="&lt;div&gt;&lt;i style=&quot;font-weight: normal;&quot;&gt;&amp;lt;&amp;lt;Interface&amp;gt;&amp;gt;&lt;/i&gt;&amp;nbsp;&lt;span style=&quot;background-color: initial;&quot;&gt;DataParser&lt;/span&gt;&lt;/div&gt;" style="swimlane;fontStyle=1;align=center;verticalAlign=top;childLayout=stackLayout;horizontal=1;startSize=26;horizontalStack=0;resizeParent=1;resizeParentMax=0;resizeLast=0;collapsible=1;marginBottom=0;whiteSpace=wrap;html=1;" parent="WIyWlLk6GJQsqaUBKTNV-1" vertex="1">
          <mxGeometry x="1119" y="23" width="260" height="74" as="geometry" />
        </mxCell>
        <mxCell id="9rCTW5py7BMMXRhduKw8-35" value="&amp;nbsp;" style="text;strokeColor=none;fillColor=none;align=left;verticalAlign=top;spacingLeft=4;spacingRight=4;overflow=hidden;rotatable=0;points=[[0,0.5],[1,0.5]];portConstraint=eastwest;whiteSpace=wrap;html=1;" parent="9rCTW5py7BMMXRhduKw8-34" vertex="1">
          <mxGeometry y="26" width="260" height="14" as="geometry" />
        </mxCell>
        <mxCell id="9rCTW5py7BMMXRhduKw8-36" value="" style="line;strokeWidth=1;fillColor=none;align=left;verticalAlign=middle;spacingTop=-1;spacingLeft=3;spacingRight=3;rotatable=0;labelPosition=right;points=[];portConstraint=eastwest;strokeColor=inherit;" parent="9rCTW5py7BMMXRhduKw8-34" vertex="1">
          <mxGeometry y="40" width="260" height="8" as="geometry" />
        </mxCell>
        <mxCell id="9rCTW5py7BMMXRhduKw8-37" value="&lt;div&gt;+ &lt;i&gt;read&lt;/i&gt;(filepath:String):&amp;nbsp; List&amp;lt;List&amp;lt;String&amp;gt;&amp;gt;&lt;/div&gt;" style="text;strokeColor=none;fillColor=none;align=left;verticalAlign=top;spacingLeft=4;spacingRight=4;overflow=hidden;rotatable=0;points=[[0,0.5],[1,0.5]];portConstraint=eastwest;whiteSpace=wrap;html=1;" parent="9rCTW5py7BMMXRhduKw8-34" vertex="1">
          <mxGeometry y="48" width="260" height="26" as="geometry" />
        </mxCell>
        <mxCell id="9rCTW5py7BMMXRhduKw8-40" value="" style="endArrow=block;dashed=1;endFill=0;endSize=12;html=1;rounded=0;exitX=0.5;exitY=0;exitDx=0;exitDy=0;entryX=0.483;entryY=1.212;entryDx=0;entryDy=0;entryPerimeter=0;" parent="WIyWlLk6GJQsqaUBKTNV-1" source="9rCTW5py7BMMXRhduKw8-41" target="9rCTW5py7BMMXRhduKw8-37" edge="1">
          <mxGeometry width="160" relative="1" as="geometry">
            <mxPoint x="1390" y="100" as="sourcePoint" />
            <mxPoint x="1550" y="100" as="targetPoint" />
          </mxGeometry>
        </mxCell>
        <mxCell id="9rCTW5py7BMMXRhduKw8-41" value="&lt;div&gt;&lt;span style=&quot;background-color: initial;&quot;&gt;CsvParser&lt;/span&gt;&lt;/div&gt;" style="swimlane;fontStyle=1;align=center;verticalAlign=top;childLayout=stackLayout;horizontal=1;startSize=26;horizontalStack=0;resizeParent=1;resizeParentMax=0;resizeLast=0;collapsible=1;marginBottom=0;whiteSpace=wrap;html=1;" parent="WIyWlLk6GJQsqaUBKTNV-1" vertex="1">
          <mxGeometry x="1099" y="155" width="290" height="186" as="geometry" />
        </mxCell>
        <mxCell id="9rCTW5py7BMMXRhduKw8-42" value="- delimiter: String&lt;div&gt;&lt;br&gt;&lt;/div&gt;" style="text;strokeColor=none;fillColor=none;align=left;verticalAlign=top;spacingLeft=4;spacingRight=4;overflow=hidden;rotatable=0;points=[[0,0.5],[1,0.5]];portConstraint=eastwest;whiteSpace=wrap;html=1;" parent="9rCTW5py7BMMXRhduKw8-41" vertex="1">
          <mxGeometry y="26" width="290" height="24" as="geometry" />
        </mxCell>
        <mxCell id="9rCTW5py7BMMXRhduKw8-45" value="&lt;div&gt;- dropIndex: boolean&lt;/div&gt;" style="text;strokeColor=none;fillColor=none;align=left;verticalAlign=top;spacingLeft=4;spacingRight=4;overflow=hidden;rotatable=0;points=[[0,0.5],[1,0.5]];portConstraint=eastwest;whiteSpace=wrap;html=1;" parent="9rCTW5py7BMMXRhduKw8-41" vertex="1">
          <mxGeometry y="50" width="290" height="24" as="geometry" />
        </mxCell>
        <mxCell id="9rCTW5py7BMMXRhduKw8-43" value="" style="line;strokeWidth=1;fillColor=none;align=left;verticalAlign=middle;spacingTop=-1;spacingLeft=3;spacingRight=3;rotatable=0;labelPosition=right;points=[];portConstraint=eastwest;strokeColor=inherit;" parent="9rCTW5py7BMMXRhduKw8-41" vertex="1">
          <mxGeometry y="74" width="290" height="8" as="geometry" />
        </mxCell>
        <mxCell id="9rCTW5py7BMMXRhduKw8-44" value="&lt;div&gt;+ CsvParser()&lt;/div&gt;&lt;div&gt;&lt;br&gt;&lt;/div&gt;" style="text;strokeColor=none;fillColor=none;align=left;verticalAlign=top;spacingLeft=4;spacingRight=4;overflow=hidden;rotatable=0;points=[[0,0.5],[1,0.5]];portConstraint=eastwest;whiteSpace=wrap;html=1;" parent="9rCTW5py7BMMXRhduKw8-41" vertex="1">
          <mxGeometry y="82" width="290" height="26" as="geometry" />
        </mxCell>
        <mxCell id="9rCTW5py7BMMXRhduKw8-47" value="&lt;div&gt;+ CsvParser(delimiter:String, dropIndex:boolean)&lt;/div&gt;&lt;div&gt;&lt;br&gt;&lt;/div&gt;" style="text;strokeColor=none;fillColor=none;align=left;verticalAlign=top;spacingLeft=4;spacingRight=4;overflow=hidden;rotatable=0;points=[[0,0.5],[1,0.5]];portConstraint=eastwest;whiteSpace=wrap;html=1;" parent="9rCTW5py7BMMXRhduKw8-41" vertex="1">
          <mxGeometry y="108" width="290" height="26" as="geometry" />
        </mxCell>
        <mxCell id="9rCTW5py7BMMXRhduKw8-48" value="&lt;div&gt;+ read(filepath:String):&amp;nbsp; List&amp;lt;List&amp;lt;String&amp;gt;&amp;gt;&lt;/div&gt;" style="text;strokeColor=none;fillColor=none;align=left;verticalAlign=top;spacingLeft=4;spacingRight=4;overflow=hidden;rotatable=0;points=[[0,0.5],[1,0.5]];portConstraint=eastwest;whiteSpace=wrap;html=1;" parent="9rCTW5py7BMMXRhduKw8-41" vertex="1">
          <mxGeometry y="134" width="290" height="26" as="geometry" />
        </mxCell>
        <mxCell id="9rCTW5py7BMMXRhduKw8-49" value="&lt;div&gt;- splitLine(inputString:String): List&amp;lt;String&amp;gt;&lt;/div&gt;" style="text;strokeColor=none;fillColor=none;align=left;verticalAlign=top;spacingLeft=4;spacingRight=4;overflow=hidden;rotatable=0;points=[[0,0.5],[1,0.5]];portConstraint=eastwest;whiteSpace=wrap;html=1;" parent="9rCTW5py7BMMXRhduKw8-41" vertex="1">
          <mxGeometry y="160" width="290" height="26" as="geometry" />
        </mxCell>
        <mxCell id="9rCTW5py7BMMXRhduKw8-50" value="&lt;div&gt;&lt;span style=&quot;background-color: initial;&quot;&gt;TablePrinter&lt;/span&gt;&lt;/div&gt;" style="swimlane;fontStyle=1;align=center;verticalAlign=top;childLayout=stackLayout;horizontal=1;startSize=26;horizontalStack=0;resizeParent=1;resizeParentMax=0;resizeLast=0;collapsible=1;marginBottom=0;whiteSpace=wrap;html=1;" parent="WIyWlLk6GJQsqaUBKTNV-1" vertex="1">
          <mxGeometry x="1421" y="54" width="340" height="204" as="geometry" />
        </mxCell>
        <mxCell id="9rCTW5py7BMMXRhduKw8-51" value="&lt;div&gt;&lt;br&gt;&lt;/div&gt;" style="text;strokeColor=none;fillColor=none;align=left;verticalAlign=top;spacingLeft=4;spacingRight=4;overflow=hidden;rotatable=0;points=[[0,0.5],[1,0.5]];portConstraint=eastwest;whiteSpace=wrap;html=1;" parent="9rCTW5py7BMMXRhduKw8-50" vertex="1">
          <mxGeometry y="26" width="340" height="14" as="geometry" />
        </mxCell>
        <mxCell id="9rCTW5py7BMMXRhduKw8-53" value="" style="line;strokeWidth=1;fillColor=none;align=left;verticalAlign=middle;spacingTop=-1;spacingLeft=3;spacingRight=3;rotatable=0;labelPosition=right;points=[];portConstraint=eastwest;strokeColor=inherit;" parent="9rCTW5py7BMMXRhduKw8-50" vertex="1">
          <mxGeometry y="40" width="340" height="8" as="geometry" />
        </mxCell>
        <mxCell id="9rCTW5py7BMMXRhduKw8-54" value="&lt;div&gt;+&lt;u&gt;display(cube:Cube): void&lt;/u&gt;&lt;/div&gt;&lt;div&gt;&lt;br&gt;&lt;/div&gt;" style="text;strokeColor=none;fillColor=none;align=left;verticalAlign=top;spacingLeft=4;spacingRight=4;overflow=hidden;rotatable=0;points=[[0,0.5],[1,0.5]];portConstraint=eastwest;whiteSpace=wrap;html=1;" parent="9rCTW5py7BMMXRhduKw8-50" vertex="1">
          <mxGeometry y="48" width="340" height="26" as="geometry" />
        </mxCell>
        <mxCell id="9rCTW5py7BMMXRhduKw8-55" value="&lt;div&gt;+&lt;u&gt;display(cube:Cube, dimension:String): void&lt;/u&gt;&lt;/div&gt;&lt;div&gt;&lt;br&gt;&lt;/div&gt;" style="text;strokeColor=none;fillColor=none;align=left;verticalAlign=top;spacingLeft=4;spacingRight=4;overflow=hidden;rotatable=0;points=[[0,0.5],[1,0.5]];portConstraint=eastwest;whiteSpace=wrap;html=1;" parent="9rCTW5py7BMMXRhduKw8-50" vertex="1">
          <mxGeometry y="74" width="340" height="26" as="geometry" />
        </mxCell>
        <mxCell id="9rCTW5py7BMMXRhduKw8-56" value="&lt;div&gt;+&lt;u&gt;display(cube:Cube, rowDim:String, colDim:String): void&lt;/u&gt;&lt;/div&gt;&lt;div&gt;&lt;br&gt;&lt;/div&gt;" style="text;strokeColor=none;fillColor=none;align=left;verticalAlign=top;spacingLeft=4;spacingRight=4;overflow=hidden;rotatable=0;points=[[0,0.5],[1,0.5]];portConstraint=eastwest;whiteSpace=wrap;html=1;" parent="9rCTW5py7BMMXRhduKw8-50" vertex="1">
          <mxGeometry y="100" width="340" height="26" as="geometry" />
        </mxCell>
        <mxCell id="9rCTW5py7BMMXRhduKw8-57" value="&lt;div&gt;-&lt;u&gt;print(tableData:String[][]): void&lt;/u&gt;&lt;/div&gt;" style="text;strokeColor=none;fillColor=none;align=left;verticalAlign=top;spacingLeft=4;spacingRight=4;overflow=hidden;rotatable=0;points=[[0,0.5],[1,0.5]];portConstraint=eastwest;whiteSpace=wrap;html=1;" parent="9rCTW5py7BMMXRhduKw8-50" vertex="1">
          <mxGeometry y="126" width="340" height="26" as="geometry" />
        </mxCell>
        <mxCell id="9rCTW5py7BMMXRhduKw8-58" value="&lt;div&gt;-&lt;u&gt;printSeparator(columnWidths:int[]): void&lt;/u&gt;&lt;/div&gt;" style="text;strokeColor=none;fillColor=none;align=left;verticalAlign=top;spacingLeft=4;spacingRight=4;overflow=hidden;rotatable=0;points=[[0,0.5],[1,0.5]];portConstraint=eastwest;whiteSpace=wrap;html=1;" parent="9rCTW5py7BMMXRhduKw8-50" vertex="1">
          <mxGeometry y="152" width="340" height="26" as="geometry" />
        </mxCell>
        <mxCell id="9rCTW5py7BMMXRhduKw8-59" value="-&lt;u&gt;printRow(row, String[], columnWidths:int[]): void&lt;/u&gt;" style="text;strokeColor=none;fillColor=none;align=left;verticalAlign=top;spacingLeft=4;spacingRight=4;overflow=hidden;rotatable=0;points=[[0,0.5],[1,0.5]];portConstraint=eastwest;whiteSpace=wrap;html=1;" parent="9rCTW5py7BMMXRhduKw8-50" vertex="1">
          <mxGeometry y="178" width="340" height="26" as="geometry" />
        </mxCell>
        <mxCell id="9rCTW5py7BMMXRhduKw8-70" value="&amp;lt;&amp;lt;Enumeration&amp;gt;&amp;gt; DataType" style="swimlane;fontStyle=0;childLayout=stackLayout;horizontal=1;startSize=26;fillColor=none;horizontalStack=0;resizeParent=1;resizeParentMax=0;resizeLast=0;collapsible=1;marginBottom=0;whiteSpace=wrap;html=1;" parent="WIyWlLk6GJQsqaUBKTNV-1" vertex="1">
          <mxGeometry x="1787" y="91" width="140" height="130" as="geometry" />
        </mxCell>
        <mxCell id="9rCTW5py7BMMXRhduKw8-71" value="INTEGER" style="text;strokeColor=none;fillColor=none;align=left;verticalAlign=top;spacingLeft=4;spacingRight=4;overflow=hidden;rotatable=0;points=[[0,0.5],[1,0.5]];portConstraint=eastwest;whiteSpace=wrap;html=1;" parent="9rCTW5py7BMMXRhduKw8-70" vertex="1">
          <mxGeometry y="26" width="140" height="26" as="geometry" />
        </mxCell>
        <mxCell id="9rCTW5py7BMMXRhduKw8-72" value="FLOAT" style="text;strokeColor=none;fillColor=none;align=left;verticalAlign=top;spacingLeft=4;spacingRight=4;overflow=hidden;rotatable=0;points=[[0,0.5],[1,0.5]];portConstraint=eastwest;whiteSpace=wrap;html=1;" parent="9rCTW5py7BMMXRhduKw8-70" vertex="1">
          <mxGeometry y="52" width="140" height="26" as="geometry" />
        </mxCell>
        <mxCell id="9rCTW5py7BMMXRhduKw8-73" value="STRING&lt;div&gt;&lt;br&gt;&lt;/div&gt;" style="text;strokeColor=none;fillColor=none;align=left;verticalAlign=top;spacingLeft=4;spacingRight=4;overflow=hidden;rotatable=0;points=[[0,0.5],[1,0.5]];portConstraint=eastwest;whiteSpace=wrap;html=1;" parent="9rCTW5py7BMMXRhduKw8-70" vertex="1">
          <mxGeometry y="78" width="140" height="26" as="geometry" />
        </mxCell>
        <mxCell id="9rCTW5py7BMMXRhduKw8-74" value="&lt;div&gt;DATE&lt;/div&gt;" style="text;strokeColor=none;fillColor=none;align=left;verticalAlign=top;spacingLeft=4;spacingRight=4;overflow=hidden;rotatable=0;points=[[0,0.5],[1,0.5]];portConstraint=eastwest;whiteSpace=wrap;html=1;" parent="9rCTW5py7BMMXRhduKw8-70" vertex="1">
          <mxGeometry y="104" width="140" height="26" as="geometry" />
        </mxCell>
        <mxCell id="9rCTW5py7BMMXRhduKw8-76" value="API" style="shape=umlFrame;whiteSpace=wrap;html=1;pointerEvents=0;" parent="WIyWlLk6GJQsqaUBKTNV-1" vertex="1">
          <mxGeometry x="1050" y="10" width="990" height="350" as="geometry" />
        </mxCell>
        <mxCell id="9rCTW5py7BMMXRhduKw8-77" value="&lt;div&gt;&lt;span style=&quot;background-color: initial;&quot;&gt;CubeBuilder&lt;/span&gt;&lt;/div&gt;" style="swimlane;fontStyle=1;align=center;verticalAlign=top;childLayout=stackLayout;horizontal=1;startSize=26;horizontalStack=0;resizeParent=1;resizeParentMax=0;resizeLast=0;collapsible=1;marginBottom=0;whiteSpace=wrap;html=1;" parent="WIyWlLk6GJQsqaUBKTNV-1" vertex="1">
          <mxGeometry x="331" y="49" width="620" height="260" as="geometry" />
        </mxCell>
        <mxCell id="9rCTW5py7BMMXRhduKw8-78" value="- dimensions: List&amp;lt;Dimension&amp;gt;&lt;div&gt;&lt;br&gt;&lt;/div&gt;" style="text;strokeColor=none;fillColor=none;align=left;verticalAlign=top;spacingLeft=4;spacingRight=4;overflow=hidden;rotatable=0;points=[[0,0.5],[1,0.5]];portConstraint=eastwest;whiteSpace=wrap;html=1;" parent="9rCTW5py7BMMXRhduKw8-77" vertex="1">
          <mxGeometry y="26" width="620" height="24" as="geometry" />
        </mxCell>
        <mxCell id="9rCTW5py7BMMXRhduKw8-79" value="&lt;div&gt;- cells: List&amp;lt;Cell&amp;gt;&lt;/div&gt;" style="text;strokeColor=none;fillColor=none;align=left;verticalAlign=top;spacingLeft=4;spacingRight=4;overflow=hidden;rotatable=0;points=[[0,0.5],[1,0.5]];portConstraint=eastwest;whiteSpace=wrap;html=1;" parent="9rCTW5py7BMMXRhduKw8-77" vertex="1">
          <mxGeometry y="50" width="620" height="24" as="geometry" />
        </mxCell>
        <mxCell id="9rCTW5py7BMMXRhduKw8-86" value="&lt;div&gt;- foreignKeys: List&amp;lt;String&amp;gt;&lt;/div&gt;" style="text;strokeColor=none;fillColor=none;align=left;verticalAlign=top;spacingLeft=4;spacingRight=4;overflow=hidden;rotatable=0;points=[[0,0.5],[1,0.5]];portConstraint=eastwest;whiteSpace=wrap;html=1;" parent="9rCTW5py7BMMXRhduKw8-77" vertex="1">
          <mxGeometry y="74" width="620" height="24" as="geometry" />
        </mxCell>
        <mxCell id="9rCTW5py7BMMXRhduKw8-87" value="&lt;div&gt;- facts: List&amp;lt;String&amp;gt;&lt;/div&gt;" style="text;strokeColor=none;fillColor=none;align=left;verticalAlign=top;spacingLeft=4;spacingRight=4;overflow=hidden;rotatable=0;points=[[0,0.5],[1,0.5]];portConstraint=eastwest;whiteSpace=wrap;html=1;" parent="9rCTW5py7BMMXRhduKw8-77" vertex="1">
          <mxGeometry y="98" width="620" height="24" as="geometry" />
        </mxCell>
        <mxCell id="9rCTW5py7BMMXRhduKw8-80" value="" style="line;strokeWidth=1;fillColor=none;align=left;verticalAlign=middle;spacingTop=-1;spacingLeft=3;spacingRight=3;rotatable=0;labelPosition=right;points=[];portConstraint=eastwest;strokeColor=inherit;" parent="9rCTW5py7BMMXRhduKw8-77" vertex="1">
          <mxGeometry y="122" width="620" height="8" as="geometry" />
        </mxCell>
        <mxCell id="9rCTW5py7BMMXRhduKw8-81" value="&lt;div&gt;+ CubeBuilder()&lt;/div&gt;&lt;div&gt;&lt;br&gt;&lt;/div&gt;" style="text;strokeColor=none;fillColor=none;align=left;verticalAlign=top;spacingLeft=4;spacingRight=4;overflow=hidden;rotatable=0;points=[[0,0.5],[1,0.5]];portConstraint=eastwest;whiteSpace=wrap;html=1;" parent="9rCTW5py7BMMXRhduKw8-77" vertex="1">
          <mxGeometry y="130" width="620" height="26" as="geometry" />
        </mxCell>
        <mxCell id="9rCTW5py7BMMXRhduKw8-82" value="&lt;div&gt;+ addDimension(name:String, idKey:String, model:List&amp;lt;DataType&amp;gt;, parser:&amp;lt;DataParser&amp;gt;, path:String): void&lt;/div&gt;" style="text;strokeColor=none;fillColor=none;align=left;verticalAlign=top;spacingLeft=4;spacingRight=4;overflow=hidden;rotatable=0;points=[[0,0.5],[1,0.5]];portConstraint=eastwest;whiteSpace=wrap;html=1;" parent="9rCTW5py7BMMXRhduKw8-77" vertex="1">
          <mxGeometry y="156" width="620" height="26" as="geometry" />
        </mxCell>
        <mxCell id="9rCTW5py7BMMXRhduKw8-83" value="&lt;div&gt;+ addFacts(name:String, parser:DataParser, path:String): void&lt;/div&gt;" style="text;strokeColor=none;fillColor=none;align=left;verticalAlign=top;spacingLeft=4;spacingRight=4;overflow=hidden;rotatable=0;points=[[0,0.5],[1,0.5]];portConstraint=eastwest;whiteSpace=wrap;html=1;" parent="9rCTW5py7BMMXRhduKw8-77" vertex="1">
          <mxGeometry y="182" width="620" height="26" as="geometry" />
        </mxCell>
        <mxCell id="9rCTW5py7BMMXRhduKw8-84" value="&lt;div&gt;+ buildCube(): Cube&lt;/div&gt;" style="text;strokeColor=none;fillColor=none;align=left;verticalAlign=top;spacingLeft=4;spacingRight=4;overflow=hidden;rotatable=0;points=[[0,0.5],[1,0.5]];portConstraint=eastwest;whiteSpace=wrap;html=1;" parent="9rCTW5py7BMMXRhduKw8-77" vertex="1">
          <mxGeometry y="208" width="620" height="26" as="geometry" />
        </mxCell>
        <mxCell id="9rCTW5py7BMMXRhduKw8-88" value="&lt;div&gt;- addMeasures(cube:Cube): void&lt;/div&gt;" style="text;strokeColor=none;fillColor=none;align=left;verticalAlign=top;spacingLeft=4;spacingRight=4;overflow=hidden;rotatable=0;points=[[0,0.5],[1,0.5]];portConstraint=eastwest;whiteSpace=wrap;html=1;" parent="9rCTW5py7BMMXRhduKw8-77" vertex="1">
          <mxGeometry y="234" width="620" height="26" as="geometry" />
        </mxCell>
        <mxCell id="9rCTW5py7BMMXRhduKw8-89" value="Config" style="shape=umlFrame;whiteSpace=wrap;html=1;pointerEvents=0;" parent="WIyWlLk6GJQsqaUBKTNV-1" vertex="1">
          <mxGeometry x="250" y="10" width="760" height="350" as="geometry" />
        </mxCell>
        <mxCell id="COhaNsxNRZOmJeD_DCHp-0" value="&lt;div&gt;&lt;span style=&quot;background-color: initial;&quot;&gt;Cube&lt;/span&gt;&lt;/div&gt;" style="swimlane;fontStyle=1;align=center;verticalAlign=top;childLayout=stackLayout;horizontal=1;startSize=26;horizontalStack=0;resizeParent=1;resizeParentMax=0;resizeLast=0;collapsible=1;marginBottom=0;whiteSpace=wrap;html=1;" vertex="1" parent="WIyWlLk6GJQsqaUBKTNV-1">
          <mxGeometry x="-570" y="420" width="620" height="438" as="geometry" />
        </mxCell>
        <mxCell id="COhaNsxNRZOmJeD_DCHp-1" value="&lt;div&gt;- dimensions: Map&amp;lt;String, Dimension&amp;gt;&lt;/div&gt;" style="text;strokeColor=none;fillColor=none;align=left;verticalAlign=top;spacingLeft=4;spacingRight=4;overflow=hidden;rotatable=0;points=[[0,0.5],[1,0.5]];portConstraint=eastwest;whiteSpace=wrap;html=1;" vertex="1" parent="COhaNsxNRZOmJeD_DCHp-0">
          <mxGeometry y="26" width="620" height="24" as="geometry" />
        </mxCell>
        <mxCell id="COhaNsxNRZOmJeD_DCHp-13" value="&lt;div&gt;- measures: List&amp;lt;Measure&amp;gt;&lt;/div&gt;" style="text;strokeColor=none;fillColor=none;align=left;verticalAlign=top;spacingLeft=4;spacingRight=4;overflow=hidden;rotatable=0;points=[[0,0.5],[1,0.5]];portConstraint=eastwest;whiteSpace=wrap;html=1;" vertex="1" parent="COhaNsxNRZOmJeD_DCHp-0">
          <mxGeometry y="50" width="620" height="24" as="geometry" />
        </mxCell>
        <mxCell id="COhaNsxNRZOmJeD_DCHp-14" value="&lt;div&gt;- facts: List&amp;lt;String&amp;gt;&lt;/div&gt;" style="text;strokeColor=none;fillColor=none;align=left;verticalAlign=top;spacingLeft=4;spacingRight=4;overflow=hidden;rotatable=0;points=[[0,0.5],[1,0.5]];portConstraint=eastwest;whiteSpace=wrap;html=1;" vertex="1" parent="COhaNsxNRZOmJeD_DCHp-0">
          <mxGeometry y="74" width="620" height="24" as="geometry" />
        </mxCell>
        <mxCell id="COhaNsxNRZOmJeD_DCHp-15" value="&lt;div&gt;- cells: List&amp;lt;Cells&lt;/div&gt;&lt;div&gt;&amp;gt;&lt;/div&gt;" style="text;strokeColor=none;fillColor=none;align=left;verticalAlign=top;spacingLeft=4;spacingRight=4;overflow=hidden;rotatable=0;points=[[0,0.5],[1,0.5]];portConstraint=eastwest;whiteSpace=wrap;html=1;" vertex="1" parent="COhaNsxNRZOmJeD_DCHp-0">
          <mxGeometry y="98" width="620" height="24" as="geometry" />
        </mxCell>
        <mxCell id="COhaNsxNRZOmJeD_DCHp-16" value="- selectedFact: int" style="text;strokeColor=none;fillColor=none;align=left;verticalAlign=top;spacingLeft=4;spacingRight=4;overflow=hidden;rotatable=0;points=[[0,0.5],[1,0.5]];portConstraint=eastwest;whiteSpace=wrap;html=1;" vertex="1" parent="COhaNsxNRZOmJeD_DCHp-0">
          <mxGeometry y="122" width="620" height="24" as="geometry" />
        </mxCell>
        <mxCell id="COhaNsxNRZOmJeD_DCHp-17" value="- selectedMeasure: int" style="text;strokeColor=none;fillColor=none;align=left;verticalAlign=top;spacingLeft=4;spacingRight=4;overflow=hidden;rotatable=0;points=[[0,0.5],[1,0.5]];portConstraint=eastwest;whiteSpace=wrap;html=1;" vertex="1" parent="COhaNsxNRZOmJeD_DCHp-0">
          <mxGeometry y="146" width="620" height="24" as="geometry" />
        </mxCell>
        <mxCell id="COhaNsxNRZOmJeD_DCHp-5" value="" style="line;strokeWidth=1;fillColor=none;align=left;verticalAlign=middle;spacingTop=-1;spacingLeft=3;spacingRight=3;rotatable=0;labelPosition=right;points=[];portConstraint=eastwest;strokeColor=inherit;" vertex="1" parent="COhaNsxNRZOmJeD_DCHp-0">
          <mxGeometry y="170" width="620" height="8" as="geometry" />
        </mxCell>
        <mxCell id="COhaNsxNRZOmJeD_DCHp-10" value="&lt;div&gt;+ Cube()&lt;/div&gt;" style="text;strokeColor=none;fillColor=none;align=left;verticalAlign=top;spacingLeft=4;spacingRight=4;overflow=hidden;rotatable=0;points=[[0,0.5],[1,0.5]];portConstraint=eastwest;whiteSpace=wrap;html=1;" vertex="1" parent="COhaNsxNRZOmJeD_DCHp-0">
          <mxGeometry y="178" width="620" height="26" as="geometry" />
        </mxCell>
        <mxCell id="COhaNsxNRZOmJeD_DCHp-18" value="&lt;div&gt;- Cube(&lt;span style=&quot;background-color: initial;&quot;&gt;dimensions: Map&amp;lt;String, Dimension&amp;gt;, metrics: List&amp;lt;Measure&amp;gt;, facts:List&amp;lt;String&amp;gt;, cells: List&amp;lt;Cell&amp;gt;&lt;/span&gt;&lt;span style=&quot;background-color: initial;&quot;&gt;)&lt;/span&gt;&lt;/div&gt;" style="text;strokeColor=none;fillColor=none;align=left;verticalAlign=top;spacingLeft=4;spacingRight=4;overflow=hidden;rotatable=0;points=[[0,0.5],[1,0.5]];portConstraint=eastwest;whiteSpace=wrap;html=1;" vertex="1" parent="COhaNsxNRZOmJeD_DCHp-0">
          <mxGeometry y="204" width="620" height="26" as="geometry" />
        </mxCell>
        <mxCell id="COhaNsxNRZOmJeD_DCHp-19" value="&lt;div&gt;+ drillDown(dimension: String): boolean&lt;/div&gt;" style="text;strokeColor=none;fillColor=none;align=left;verticalAlign=top;spacingLeft=4;spacingRight=4;overflow=hidden;rotatable=0;points=[[0,0.5],[1,0.5]];portConstraint=eastwest;whiteSpace=wrap;html=1;" vertex="1" parent="COhaNsxNRZOmJeD_DCHp-0">
          <mxGeometry y="230" width="620" height="26" as="geometry" />
        </mxCell>
        <mxCell id="COhaNsxNRZOmJeD_DCHp-20" value="&lt;div&gt;+ rollUp(dimension: String): boolean&lt;/div&gt;" style="text;strokeColor=none;fillColor=none;align=left;verticalAlign=top;spacingLeft=4;spacingRight=4;overflow=hidden;rotatable=0;points=[[0,0.5],[1,0.5]];portConstraint=eastwest;whiteSpace=wrap;html=1;" vertex="1" parent="COhaNsxNRZOmJeD_DCHp-0">
          <mxGeometry y="256" width="620" height="26" as="geometry" />
        </mxCell>
        <mxCell id="COhaNsxNRZOmJeD_DCHp-21" value="&lt;div&gt;+ selectFact(fact: String): void&lt;/div&gt;" style="text;strokeColor=none;fillColor=none;align=left;verticalAlign=top;spacingLeft=4;spacingRight=4;overflow=hidden;rotatable=0;points=[[0,0.5],[1,0.5]];portConstraint=eastwest;whiteSpace=wrap;html=1;" vertex="1" parent="COhaNsxNRZOmJeD_DCHp-0">
          <mxGeometry y="282" width="620" height="26" as="geometry" />
        </mxCell>
        <mxCell id="COhaNsxNRZOmJeD_DCHp-22" value="&lt;div&gt;+ selectMeasure(metric: String): void&lt;/div&gt;" style="text;strokeColor=none;fillColor=none;align=left;verticalAlign=top;spacingLeft=4;spacingRight=4;overflow=hidden;rotatable=0;points=[[0,0.5],[1,0.5]];portConstraint=eastwest;whiteSpace=wrap;html=1;" vertex="1" parent="COhaNsxNRZOmJeD_DCHp-0">
          <mxGeometry y="308" width="620" height="26" as="geometry" />
        </mxCell>
        <mxCell id="COhaNsxNRZOmJeD_DCHp-23" value="&lt;div&gt;+ slice(dimension:String, value:String): Cube&lt;/div&gt;" style="text;strokeColor=none;fillColor=none;align=left;verticalAlign=top;spacingLeft=4;spacingRight=4;overflow=hidden;rotatable=0;points=[[0,0.5],[1,0.5]];portConstraint=eastwest;whiteSpace=wrap;html=1;" vertex="1" parent="COhaNsxNRZOmJeD_DCHp-0">
          <mxGeometry y="334" width="620" height="26" as="geometry" />
        </mxCell>
        <mxCell id="COhaNsxNRZOmJeD_DCHp-24" value="&lt;div&gt;+ dice(dimension:String, values:String[]): Cube&lt;/div&gt;" style="text;strokeColor=none;fillColor=none;align=left;verticalAlign=top;spacingLeft=4;spacingRight=4;overflow=hidden;rotatable=0;points=[[0,0.5],[1,0.5]];portConstraint=eastwest;whiteSpace=wrap;html=1;" vertex="1" parent="COhaNsxNRZOmJeD_DCHp-0">
          <mxGeometry y="360" width="620" height="26" as="geometry" />
        </mxCell>
        <mxCell id="COhaNsxNRZOmJeD_DCHp-25" value="&lt;div&gt;+ dice(dim1:String, values1:String[],&amp;nbsp;&lt;span style=&quot;background-color: initial;&quot;&gt;dim2:String, values2:String[]&lt;/span&gt;&lt;span style=&quot;background-color: initial;&quot;&gt;): Cube&lt;/span&gt;&lt;/div&gt;" style="text;strokeColor=none;fillColor=none;align=left;verticalAlign=top;spacingLeft=4;spacingRight=4;overflow=hidden;rotatable=0;points=[[0,0.5],[1,0.5]];portConstraint=eastwest;whiteSpace=wrap;html=1;" vertex="1" parent="COhaNsxNRZOmJeD_DCHp-0">
          <mxGeometry y="386" width="620" height="26" as="geometry" />
        </mxCell>
        <mxCell id="COhaNsxNRZOmJeD_DCHp-26" value="+ dice(dim1:String, values1:String[],&amp;nbsp;&lt;span style=&quot;background-color: initial;&quot;&gt;dim2:String, values2:String[],&amp;nbsp;&lt;/span&gt;,&amp;nbsp;&lt;span style=&quot;background-color: initial;&quot;&gt;dim3:String, values3:String[]&lt;/span&gt;&lt;span style=&quot;background-color: initial;&quot;&gt;): Cube&lt;/span&gt;" style="text;strokeColor=none;fillColor=none;align=left;verticalAlign=top;spacingLeft=4;spacingRight=4;overflow=hidden;rotatable=0;points=[[0,0.5],[1,0.5]];portConstraint=eastwest;whiteSpace=wrap;html=1;" vertex="1" parent="COhaNsxNRZOmJeD_DCHp-0">
          <mxGeometry y="412" width="620" height="26" as="geometry" />
        </mxCell>
        <mxCell id="COhaNsxNRZOmJeD_DCHp-27" value="&lt;div&gt;&lt;span style=&quot;background-color: initial;&quot;&gt;Cell&lt;/span&gt;&lt;/div&gt;" style="swimlane;fontStyle=1;align=center;verticalAlign=top;childLayout=stackLayout;horizontal=1;startSize=26;horizontalStack=0;resizeParent=1;resizeParentMax=0;resizeLast=0;collapsible=1;marginBottom=0;whiteSpace=wrap;html=1;" vertex="1" parent="WIyWlLk6GJQsqaUBKTNV-1">
          <mxGeometry x="90" y="420" width="620" height="316" as="geometry" />
        </mxCell>
        <mxCell id="COhaNsxNRZOmJeD_DCHp-30" value="&lt;div&gt;- keys: Map&amp;lt;String, Integer&amp;gt;&lt;/div&gt;" style="text;strokeColor=none;fillColor=none;align=left;verticalAlign=top;spacingLeft=4;spacingRight=4;overflow=hidden;rotatable=0;points=[[0,0.5],[1,0.5]];portConstraint=eastwest;whiteSpace=wrap;html=1;" vertex="1" parent="COhaNsxNRZOmJeD_DCHp-27">
          <mxGeometry y="26" width="620" height="24" as="geometry" />
        </mxCell>
        <mxCell id="COhaNsxNRZOmJeD_DCHp-31" value="- facts: Map&amp;lt;String, List&amp;lt;Double&amp;gt;&amp;gt;" style="text;strokeColor=none;fillColor=none;align=left;verticalAlign=top;spacingLeft=4;spacingRight=4;overflow=hidden;rotatable=0;points=[[0,0.5],[1,0.5]];portConstraint=eastwest;whiteSpace=wrap;html=1;" vertex="1" parent="COhaNsxNRZOmJeD_DCHp-27">
          <mxGeometry y="50" width="620" height="24" as="geometry" />
        </mxCell>
        <mxCell id="COhaNsxNRZOmJeD_DCHp-32" value="" style="line;strokeWidth=1;fillColor=none;align=left;verticalAlign=middle;spacingTop=-1;spacingLeft=3;spacingRight=3;rotatable=0;labelPosition=right;points=[];portConstraint=eastwest;strokeColor=inherit;" vertex="1" parent="COhaNsxNRZOmJeD_DCHp-27">
          <mxGeometry y="74" width="620" height="8" as="geometry" />
        </mxCell>
        <mxCell id="COhaNsxNRZOmJeD_DCHp-33" value="&lt;div&gt;+ Cell()&lt;/div&gt;&lt;div&gt;&lt;br&gt;&lt;/div&gt;" style="text;strokeColor=none;fillColor=none;align=left;verticalAlign=top;spacingLeft=4;spacingRight=4;overflow=hidden;rotatable=0;points=[[0,0.5],[1,0.5]];portConstraint=eastwest;whiteSpace=wrap;html=1;" vertex="1" parent="COhaNsxNRZOmJeD_DCHp-27">
          <mxGeometry y="82" width="620" height="26" as="geometry" />
        </mxCell>
        <mxCell id="COhaNsxNRZOmJeD_DCHp-38" value="&lt;div&gt;+ Cell(keys:Map&amp;lt;String, Integer&amp;gt;, facts:Map&amp;lt;String, List&amp;lt;Double&amp;gt;&amp;gt;)&lt;/div&gt;&lt;div&gt;&lt;br&gt;&lt;/div&gt;" style="text;strokeColor=none;fillColor=none;align=left;verticalAlign=top;spacingLeft=4;spacingRight=4;overflow=hidden;rotatable=0;points=[[0,0.5],[1,0.5]];portConstraint=eastwest;whiteSpace=wrap;html=1;" vertex="1" parent="COhaNsxNRZOmJeD_DCHp-27">
          <mxGeometry y="108" width="620" height="26" as="geometry" />
        </mxCell>
        <mxCell id="COhaNsxNRZOmJeD_DCHp-39" value="&lt;div&gt;+ Cell(idKey: String, keyValue:Integer)&lt;/div&gt;&lt;div&gt;&lt;br&gt;&lt;/div&gt;" style="text;strokeColor=none;fillColor=none;align=left;verticalAlign=top;spacingLeft=4;spacingRight=4;overflow=hidden;rotatable=0;points=[[0,0.5],[1,0.5]];portConstraint=eastwest;whiteSpace=wrap;html=1;" vertex="1" parent="COhaNsxNRZOmJeD_DCHp-27">
          <mxGeometry y="134" width="620" height="26" as="geometry" />
        </mxCell>
        <mxCell id="COhaNsxNRZOmJeD_DCHp-40" value="&lt;div&gt;+ Cell(idKey: String, keyValue:Integer)&lt;/div&gt;&lt;div&gt;&lt;br&gt;&lt;/div&gt;" style="text;strokeColor=none;fillColor=none;align=left;verticalAlign=top;spacingLeft=4;spacingRight=4;overflow=hidden;rotatable=0;points=[[0,0.5],[1,0.5]];portConstraint=eastwest;whiteSpace=wrap;html=1;" vertex="1" parent="COhaNsxNRZOmJeD_DCHp-27">
          <mxGeometry y="160" width="620" height="26" as="geometry" />
        </mxCell>
        <mxCell id="COhaNsxNRZOmJeD_DCHp-41" value="&lt;div&gt;+ Cell(idKey1: String, keyValue1:Integer,&amp;nbsp;&lt;span style=&quot;background-color: initial;&quot;&gt;idKey2: String, keyValue2:Integer)&lt;/span&gt;&lt;/div&gt;&lt;div&gt;&lt;br&gt;&lt;/div&gt;" style="text;strokeColor=none;fillColor=none;align=left;verticalAlign=top;spacingLeft=4;spacingRight=4;overflow=hidden;rotatable=0;points=[[0,0.5],[1,0.5]];portConstraint=eastwest;whiteSpace=wrap;html=1;" vertex="1" parent="COhaNsxNRZOmJeD_DCHp-27">
          <mxGeometry y="186" width="620" height="26" as="geometry" />
        </mxCell>
        <mxCell id="COhaNsxNRZOmJeD_DCHp-43" value="&lt;div&gt;+ Cell(idKey1: String, keyValue1:Integer,&amp;nbsp;&lt;span style=&quot;background-color: initial;&quot;&gt;idKey2: String, keyValue2:Integer,&amp;nbsp;&lt;/span&gt;&lt;span style=&quot;background-color: initial;&quot;&gt;idKey3: String, keyValue3:Integer&lt;/span&gt;&lt;span style=&quot;background-color: initial;&quot;&gt;)&lt;/span&gt;&lt;/div&gt;&lt;div&gt;&lt;br&gt;&lt;/div&gt;" style="text;strokeColor=none;fillColor=none;align=left;verticalAlign=top;spacingLeft=4;spacingRight=4;overflow=hidden;rotatable=0;points=[[0,0.5],[1,0.5]];portConstraint=eastwest;whiteSpace=wrap;html=1;" vertex="1" parent="COhaNsxNRZOmJeD_DCHp-27">
          <mxGeometry y="212" width="620" height="26" as="geometry" />
        </mxCell>
        <mxCell id="COhaNsxNRZOmJeD_DCHp-45" value="&lt;div&gt;+ Cell(idKey1: String, keyValue1:Integer,&amp;nbsp;&lt;span style=&quot;background-color: initial;&quot;&gt;idKey2: String, keyValue2:Integer,&amp;nbsp;&lt;/span&gt;&lt;span style=&quot;background-color: initial;&quot;&gt;idKey3: String, keyValue3:Integer&lt;/span&gt;&lt;span style=&quot;background-color: initial;&quot;&gt;)&lt;/span&gt;&lt;/div&gt;&lt;div&gt;&lt;br&gt;&lt;/div&gt;" style="text;strokeColor=none;fillColor=none;align=left;verticalAlign=top;spacingLeft=4;spacingRight=4;overflow=hidden;rotatable=0;points=[[0,0.5],[1,0.5]];portConstraint=eastwest;whiteSpace=wrap;html=1;" vertex="1" parent="COhaNsxNRZOmJeD_DCHp-27">
          <mxGeometry y="238" width="620" height="26" as="geometry" />
        </mxCell>
        <mxCell id="COhaNsxNRZOmJeD_DCHp-46" value="+ isResult(key:String, value:Integer): boolean" style="text;strokeColor=none;fillColor=none;align=left;verticalAlign=top;spacingLeft=4;spacingRight=4;overflow=hidden;rotatable=0;points=[[0,0.5],[1,0.5]];portConstraint=eastwest;whiteSpace=wrap;html=1;" vertex="1" parent="COhaNsxNRZOmJeD_DCHp-27">
          <mxGeometry y="264" width="620" height="26" as="geometry" />
        </mxCell>
        <mxCell id="COhaNsxNRZOmJeD_DCHp-47" value="+ &lt;u&gt;cellFromGroup(cells:List&amp;lt;Cell&amp;gt;): Cell&lt;/u&gt;" style="text;strokeColor=none;fillColor=none;align=left;verticalAlign=top;spacingLeft=4;spacingRight=4;overflow=hidden;rotatable=0;points=[[0,0.5],[1,0.5]];portConstraint=eastwest;whiteSpace=wrap;html=1;" vertex="1" parent="COhaNsxNRZOmJeD_DCHp-27">
          <mxGeometry y="290" width="620" height="26" as="geometry" />
        </mxCell>
      </root>
    </mxGraphModel>
  </diagram>
</mxfile>
